<?xml version="1.0" encoding="UTF-8" standalone="no"?> <svg xmlns:inkscape="http://www.inkscape.org/namespaces/inkscape" xmlns:sodipodi="http://sodipodi.sourceforge.net/DTD/sodipodi-0.dtd" xmlns="http://www.w3.org/2000/svg" xmlns:svg="http://www.w3.org/2000/svg" width="71.587166mm" height="24.09256mm" viewBox="0 0 71.587166 24.09256" version="1.1" id="svg1277" inkscape:version="1.2.2 (732a01da63, 2022-12-09)" sodipodi:docname="bleksi.svg"><defs id="defs1274"></defs><g inkscape:label="Слой 1" inkscape:groupmode="layer" id="layer1" transform="translate(-49.911452,-97.874577)"><ellipse style="fill:#000000;fill-opacity:1;stroke:none;stroke-width:3.41478;stroke-linecap:round;stroke-linejoin:miter;stroke-dasharray:none;stroke-opacity:1;paint-order:fill markers stroke" id="path3131-2" cx="-31.314013" cy="130.06873" transform="matrix(-0.97762575,0.21035182,0.44457741,0.89574043,0,0)" rx="33.449902" ry="10.915812"></ellipse><g aria-label="Bleksi" id="text2713-2" style="font-size:16.6546px;font-family:'Druk Wide Bold';-inkscape-font-specification:'Druk Wide Bold, ';text-align:center;text-anchor:middle;fill:#ffffff;stroke-width:3.54076;stroke-linecap:round;paint-order:fill markers stroke"><path d="m 49.911452,115.18828 v -12.39102 h 11.65822 q 2.49819,0 3.530775,0.79942 1.04924,0.78276 1.04924,2.0152 v 0.1832 q 0,1.03259 -0.666184,1.64881 -0.666184,0.59956 -1.465605,0.78277 0.499638,0.11658 0.916003,0.31643 0.43302,0.19986 0.899349,0.5496 0.482983,0.34975 0.749457,0.94932 0.283128,0.59956 0.283128,1.36567 v 0.19986 q 0,3.58074 -5.229545,3.58074 z m 10.225924,-9.5764 h -5.496018 v 1.74874 h 5.496018 q 1.26575,0 1.26575,-0.86604 v -0.0333 q 0,-0.84939 -1.26575,-0.84939 z m 0.299783,4.53005 h -5.795801 v 2.13179 h 5.795801 q 1.465605,0 1.465605,-1.06589 v -0.05 q 0,-1.01593 -1.465605,-1.01593 z" id="path1938"></path><path d="m 72.26191,102.79726 v 12.39102 h -4.530051 v -12.39102 z" id="path1940"></path><path d="m 80.322725,108.17669 q -2.215062,0 -2.581463,1.34902 h 5.162926 q -0.283128,-1.34902 -2.581463,-1.34902 z m 7.078205,3.74729 v 0.0333 q 0,0.44967 -0.116582,0.84938 -0.116582,0.39971 -0.532947,0.916 -0.416365,0.49964 -1.099204,0.86604 -0.682838,0.34975 -1.948588,0.59957 -1.249095,0.24982 -2.914555,0.24982 H 79.90636 q -1.582187,0 -2.797973,-0.28313 -1.215786,-0.28313 -1.931933,-0.7328 -0.716148,-0.44968 -1.165822,-1.0659 -0.449675,-0.63287 -0.616221,-1.23244 -0.149891,-0.61622 -0.149891,-1.29906 v -0.33309 q 0,-4.5134 6.611876,-4.5134 h 0.916003 q 1.215786,0 2.198408,0.16655 0.999276,0.14989 1.682114,0.41637 0.682839,0.26647 1.182477,0.66618 0.516292,0.39971 0.816075,0.81607 0.299783,0.39972 0.482984,0.91601 0.1832,0.49964 0.233164,0.94931 0.06662,0.43302 0.06662,0.94931 v 0.49964 h -9.742941 q 0.233165,1.64881 2.7147,1.64881 h 0.01666 q 0.599565,0 1.065894,-0.0999 0.482984,-0.0999 0.732803,-0.21651 0.266473,-0.13324 0.433019,-0.29978 0.166546,-0.16655 0.21651,-0.26648 0.04996,-0.11658 0.06662,-0.19985 z" id="path1942"></path><path d="m 92.913609,115.18828 h -4.530051 v -12.39102 h 4.530051 v 6.92831 l 3.064447,-3.49747 h 4.879794 l -3.647354,3.9638 4.180304,4.99638 h -5.146271 l -3.33092,-4.03042 z" id="path1944"></path><path d="m 107.66959,115.4381 h -0.91601 q -5.979,0 -5.979,-3.18103 v -0.11658 h 4.61333 q 0,0.16654 0.05,0.31643 0.0666,0.1499 0.23316,0.34975 0.16655,0.19986 0.56626,0.31644 0.41637,0.11658 0.99928,0.11658 h 0.0333 q 1.08255,0 1.4656,-0.19986 0.38306,-0.19985 0.38306,-0.5496 v -0.0333 q 0,-0.34974 -0.3331,-0.51629 -0.33309,-0.1832 -1.38233,-0.21651 l -1.89862,-0.05 q -4.62998,-0.16655 -4.62998,-2.81463 v -0.0999 q 0,-0.59956 0.23316,-1.04924 0.23317,-0.46633 0.83273,-0.88269 0.61622,-0.41637 1.81536,-0.63288 1.21578,-0.21651 2.99782,-0.21651 h 0.8827 q 5.87907,0 5.87907,2.78132 v 0.11658 h -4.53005 q -0.0333,-0.21651 -0.11658,-0.34974 -0.0833,-0.14989 -0.51629,-0.31644 -0.41637,-0.16655 -1.16583,-0.16655 h -0.0166 q -1.03259,0 -1.39899,0.1499 -0.34974,0.13323 -0.34974,0.46632 v 0.0167 q 0,0.29978 0.34974,0.46633 0.34975,0.16654 1.31572,0.19985 l 1.88197,0.05 q 1.98189,0.0666 3.06444,0.41636 1.08255,0.34975 1.44895,0.91601 0.3664,0.56625 0.3664,1.51556 v 0.11659 q 0,0.53294 -0.13323,0.96596 -0.13324,0.41637 -0.53295,0.83273 -0.39971,0.39971 -1.0659,0.68284 -0.66618,0.26648 -1.79869,0.43302 -1.11586,0.16655 -2.64808,0.16655 z" id="path1946"></path><path d="m 119.31114,102.79726 v 2.68139 h -4.53006 v -2.68139 z m 0,3.43084 v 8.96018 h -4.53006 v -8.96018 z" id="path1948"></path></g></g></svg> 